<svg width="50" height="50" viewBox="0 0 50 50" fill="none" xmlns="http://www.w3.org/2000/svg">
<path fill-rule="evenodd" clip-rule="evenodd" d="M0.625 25C0.625 11.5375 11.5375 0.625 25 0.625C38.4625 0.625 49.375 11.5375 49.375 25C49.375 38.4625 38.4625 49.375 25 49.375C11.5375 49.375 0.625 38.4625 0.625 25ZM35.685 22.5425C36.1229 22.7862 36.4878 23.1426 36.7418 23.5746C36.9958 24.0067 37.1297 24.4988 37.1297 25C37.1297 25.5012 36.9958 25.9933 36.7418 26.4254C36.4878 26.8574 36.1229 27.2138 35.685 27.4575L21.6775 35.24C21.2495 35.4776 20.7668 35.5993 20.2773 35.5932C19.7878 35.5871 19.3084 35.4533 18.8864 35.2051C18.4645 34.9569 18.1146 34.6028 17.8715 34.1779C17.6283 33.753 17.5003 33.272 17.5 32.7825V17.2175C17.5 15.075 19.8025 13.7175 21.6775 14.76L35.685 22.5425Z" fill="#040404"/>
</svg>
